<svg xmlns="http://www.w3.org/2000/svg" data-name="Layer 1" viewBox="0 0 2000 2000"><polygon fill="#ffa6a4" points="1237.79 937.31 731.31 937.31 691.58 359.24 1274.87 359.24 1237.79 937.31"/><rect width="367.57" height="367.57" x="799.59" y="1011.56" fill="#ffa6a4"/><path d="M941.25,570.42c-15.68-3.69-30.5-8.25-45.29-12.59s-29.3-8.81-43.86-12.54c-3.63-1-7.26-1.94-10.91-2.7-1.82-.43-3.62-.91-5.45-1.31s-3.69-.72-5.53-1.16c-3.67-.9-7.38-1.42-11.07-2.27-3.7-.6-7.41-1.39-11.13-2-7.44-1.25-14.94-2.29-22.54-3a172.08,172.08,0,0,0-23.32-1c6.81-4.52,14.77-7,22.67-8.82A126.77,126.77,0,0,1,809,520.27a159.41,159.41,0,0,1,24.24,1.2A177.81,177.81,0,0,1,857.12,526a215.57,215.57,0,0,1,44.72,17.35,210.23,210.23,0,0,1,20.55,12.18A141.92,141.92,0,0,1,941.25,570.42Z"/><path fill="#fff" d="M1188.68 617.6l-63.41 21.56a315.05 315.05 0 01-80.07-10.36s20-22.27 50.88-34.08a110.39 110.39 0 0122.3-6 68.55 68.55 0 0117-.55C1168.65 591.14 1188.68 617.6 1188.68 617.6zM769.56 617.6L833 639.16A315.05 315.05 0 00913 628.8s-19.94-22.27-50.88-34.08a110.39 110.39 0 00-22.3-6 68.53 68.53 0 00-17-.55C789.58 591.14 769.56 617.6 769.56 617.6z"/><path d="M813,608.86a26.61,26.61,0,1,0,49.13-14.14,110.39,110.39,0,0,0-22.3-6,68.53,68.53,0,0,0-17-.55A26.68,26.68,0,0,0,813,608.86Z"/><circle cx="841.55" cy="597.73" r="5.07" fill="#fff"/><path d="M915.25,632.54a3.71,3.71,0,0,1-2.78-1.24c-.29-.33-29.54-32.45-71-38.89-40.62-6.32-66.48,27.11-66.73,27.45L773.11,622l-12.2-4.32a3.74,3.74,0,1,1,2.49-7.05l7.16,2.54c6.83-7.92,32.87-34.29,72.08-28.19,44.14,6.87,74.14,39.89,75.39,41.29a3.74,3.74,0,0,1-2.78,6.23Z"/><path fill="#f25c5c" d="M856.19,645.32a93.86,93.86,0,0,1-34.9-6.59C790.73,626.5,777.12,624,777,623.93a3.74,3.74,0,1,1,1.34-7.35c.57.1,14.48,2.71,45.73,15.21,29.51,11.8,57.14,2.53,57.41,2.44a3.74,3.74,0,0,1,2.45,7.06A91.23,91.23,0,0,1,856.19,645.32Z"/><path d="M1019.21 570.42a141.83 141.83 0 0118.85-14.88 210.23 210.23 0 0120.55-12.18A215.57 215.57 0 011103.33 526a178.11 178.11 0 0123.85-4.54 159.48 159.48 0 0124.25-1.2 126.57 126.57 0 0124.2 2.82c7.9 1.86 15.86 4.3 22.67 8.82a172.08 172.08 0 00-23.32 1c-7.6.75-15.09 1.79-22.54 3-3.72.56-7.42 1.35-11.13 2-3.68.85-7.39 1.37-11.07 2.27-1.83.44-3.68.78-5.52 1.16s-3.64.88-5.46 1.31c-3.65.76-7.28 1.74-10.91 2.7-14.55 3.73-29.11 8.16-43.85 12.54S1034.89 566.73 1019.21 570.42zM1045.2 632.54a3.74 3.74 0 01-2.78-6.23c1.26-1.4 31.25-34.42 75.39-41.29 39.23-6.09 65.25 20.27 72.09 28.19l7.16-2.54a3.74 3.74 0 012.49 7.05L1187.34 622l-1.65-2.18c-.25-.34-26.19-33.77-66.73-27.45-41.44 6.44-70.68 38.56-71 38.89A3.75 3.75 0 011045.2 632.54z"/><path d="M1145.21,608.86a26.61,26.61,0,1,1-49.13-14.14,110.39,110.39,0,0,1,22.3-6,68.55,68.55,0,0,1,17-.55A26.68,26.68,0,0,1,1145.21,608.86Z"/><path fill="#f25c5c" d="M1104.27,645.32a91.26,91.26,0,0,1-27.74-4,3.74,3.74,0,0,1,2.45-7.06h0c.28.09,27.9,9.36,57.41-2.44,31.25-12.5,45.16-15.11,45.74-15.21a3.74,3.74,0,0,1,1.34,7.35c-.14,0-13.91,2.64-44.3,14.8A93.93,93.93,0,0,1,1104.27,645.32Z"/><circle cx="1116.69" cy="597.73" r="5.07" fill="#fff"/><path fill="#5020af" d="M708.9,681.59a332.05,332.05,0,0,1-59.15-189.7c0-184.26,149.37-315.09,333.63-315.09S1317,307.63,1317,491.89a332.08,332.08,0,0,1-61.36,192.86v24.3l-14.91-80.25c-43.81-66.93-16.38-101.63-5.35-121.69s33.94-36.65,9.18-90.77S1149,354,1084.06,383.2s-100.53,23.4-100.53,23.4h-.31s-35.55,5.84-100.53-23.4S747,362.23,722.2,416.34s-1.86,70.7,9.17,90.77S769.84,561.87,726,628.8l-14.91,80.25Z"/><path fill="#ffa6a4" d="M710.32,676.29s-12.06-46.43-29-70.08-46.55-23.77-58.9,0-7.6,57.09,18,72.73,30.4,29.88,31.35,43.18,11.31,51.26,40.8,38Z"/><path d="M691.57,695.09a3.72,3.72,0,0,1-2.29-.79c-17.17-13.38-9.63-42.87-7.26-50.68-5.9-8-20.47-24.79-32.21-25.65a11.22,11.22,0,0,0-9.41,3.93,3.74,3.74,0,0,1-5.45-5.11,18.47,18.47,0,0,1,15.41-6.27c18.65,1.38,38,29.15,38.87,30.33l1.08,1.57-.63,1.79c-.11.32-11,32.33,4.19,44.19a3.74,3.74,0,0,1-2.3,6.69Z"/><path fill="#ffa6a4" d="M1255,676.29s12-46.43,29-70.08,46.54-23.77,58.89,0,7.6,57.09-18,72.73-30.39,29.88-31.34,43.18-11.32,51.26-40.81,38Z"/><path d="M1272.38,690.35a3.74,3.74,0,0,1-1.43-7.2c5.13-2.11,8.51-5.4,10.32-10,4.69-12-2.79-28.4-2.87-28.56l-.89-1.94,1.21-1.76c.82-1.18,20.22-29,38.87-30.33a18.53,18.53,0,0,1,15.41,6.27,3.74,3.74,0,1,1-5.45,5.11,11.2,11.2,0,0,0-9.4-3.93c-11.67.86-26.13,17.38-32.1,25.49,2.11,5.36,7,20.14,2.18,32.37-2.56,6.54-7.41,11.33-14.43,14.23A3.57,3.57,0,0,1,1272.38,690.35Z"/><path fill="#ff8533" d="M1676.21,1708.51v152.8H290.53v-152.8c0-5.65.1-11.26.3-16.86v0c8.84-273.88,232.36-493.53,507.78-496.2,8.25,94.73,87.76,169,184.61,169a185.31,185.31,0,0,0,184.61-169.06C1449.06,1198,1676.21,1426.73,1676.21,1708.51Z"/><path fill="#f78484" d="M1258.58 705L1244 813.69a81.16 81.16 0 01-.8 8.12 100 100 0 01-168.09-39.48.59.59 0 010-.13A100 100 0 011258.58 705zM709.15 705l14.54 108.66a81.16 81.16 0 00.8 8.12 100 100 0 00168.09-39.48.41.41 0 000-.13A100 100 0 00709.15 705z"/><path d="M1167.15,1011.56v41.9l-110,152.52a99.43,99.43,0,0,1-148.17.33L799.59,1056v-44.47Z"/><path fill="#5020af" d="M1257.8,628.8l-7.07,274.4a93,93,0,0,1-23.57,59.59l-170,190.88A99.42,99.42,0,0,1,909,1154L737.49,963.21a93.11,93.11,0,0,1-23.86-60.7L708.91,628.8H726c1.83,29,9.33,98.26,40.34,175.34,37.5,93.15,83.67,81.6,103.4,33.08a62.1,62.1,0,0,1,4.72-14.17s0,0,0-.08a63.61,63.61,0,0,1,22.89-26.22,62.8,62.8,0,0,1,34.24-10.12h103.19A63.05,63.05,0,0,1,1092,823c.42.82.79,1.69,1.14,2.54.87,3.07,1.85,6.07,2.94,8.9,19.07,50.85,66.27,64.65,104.49-30.27,31-77.08,38.51-146.34,40.33-175.34Z"/><path fill="#ffa6a4" d="M906.59,834.91h153a10.65,10.65,0,0,1,10.65,10.65v65.07A10.34,10.34,0,0,1,1059.86,921h-153a10.65,10.65,0,0,1-10.65-10.65V845.25a10.34,10.34,0,0,1,10.34-10.34Z"/><path fill="#f25c5c" d="M897.82,873.27l23.41,31.05a45.26,45.26,0,0,0,30.51,11.83h63.07a45.21,45.21,0,0,0,30.41-11.74l23.71-31.14Z"/><path d="M983.53,800.57h-.24c-18.26-1.05-28.61-14.93-32.2-20.82-8.12,1.46-31.16,4.14-35.93-11.38-5-16.15,28-72.54,34.66-83.68a3.74,3.74,0,1,1,6.41,3.84c-27.81,46.52-35.57,72.31-33.93,77.64,3.58,11.65,29.59,5.8,29.86,5.74l2.92-.7,1.31,2.71c.09.18,9,18.05,27,19.18,18-1.13,26.88-19,27-19.19l1.31-2.69,2.92.69c.26.06,26.27,5.92,29.86-5.74,1.64-5.33-6.12-31.12-33.93-77.64a3.74,3.74,0,1,1,6.41-3.84c6.66,11.14,39.63,67.53,34.66,83.68-4.77,15.51-27.81,12.83-35.94,11.38-3.58,5.89-13.89,19.77-32,20.81Z"/><path fill="#f25c5c" d="M1048 771a3.85 3.85 0 01-1.1-.16 3.74 3.74 0 01-2.47-4.67c1.64-5.33-6.12-31.12-33.93-77.64a3.74 3.74 0 116.41-3.84c.1.17 9.93 16.65 19.05 34.81 17 33.9 17.07 44.12 15.61 48.87A3.73 3.73 0 011048 771zM919 771a3.73 3.73 0 01-3.56-2.63C914 763.62 914 753.4 931 719.5c9.12-18.16 19-34.64 19.05-34.81a3.74 3.74 0 116.41 3.84c-27.81 46.52-35.57 72.31-33.93 77.64a3.74 3.74 0 01-2.47 4.67A3.87 3.87 0 01919 771zM1134.4 849.78a3.61 3.61 0 01-1.16-.19c-53-17.42-62.5-65.12-62.87-67.14a3.73 3.73 0 117.34-1.37c.35 1.85 9.14 45.41 57.86 61.41a3.74 3.74 0 01-1.17 7.29zM833.32 849.78a3.74 3.74 0 01-1.16-7.29c48.88-16.06 57.77-61 57.85-61.41a3.74 3.74 0 117.35 1.37c-.38 2-9.83 49.72-62.87 67.14A3.67 3.67 0 01833.32 849.78z"/><path d="M1037.05,845.17a15.75,15.75,0,0,0-18.35-1.76l-15.24,8.94a39.65,39.65,0,0,1-40.16,0l-15.24-8.94a15.74,15.74,0,0,0-18.35,1.76l-31.89,28.1h171.11Z"/><path fill="#fff" d="M983.22 1428.18c-119.06 0-179.27-61.69-208.81-113.43-31.87-55.82-35.59-110.76-35.74-113.08a5 5 0 014.67-5.28 5 5 0 015.28 4.67c0 .54 3.79 55.23 34.62 109.06 41.09 71.73 108.37 108.09 200 108.09 97.44 0 166.58-36.32 205.51-108 29.19-53.72 29.58-108.33 29.58-108.88a5 5 0 015-5h0a5 5 0 015 5c0 2.31-.35 57.36-30.61 113.28C1169.64 1366.44 1109.69 1428.18 983.22 1428.18zM316.21 1732.85a11.18 11.18 0 01-15.84 0l-9.84-9.84v-14.5c0-5.65.1-11.26.3-16.86L316.21 1717A11.17 11.17 0 01316.21 1732.85z" opacity=".48"/><g opacity=".46"><path fill="#fff" d="M704 1330.11a11.17 11.17 0 01-7.92-3.28l-32.27-32.27a11.21 11.21 0 0115.85-15.85L712 1311a11.21 11.21 0 01-7.93 19.13zM699.05 1485.47a11.17 11.17 0 01-7.93-3.28l-32.26-32.27a11.21 11.21 0 0115.85-15.86L707 1466.34a11.21 11.21 0 01-7.93 19.13zM500.25 1458.28a11.18 11.18 0 01-7.93-3.29l-32.27-32.26a11.21 11.21 0 0115.85-15.85l32.27 32.26a11.22 11.22 0 01-7.92 19.14zM647.17 1608a11.18 11.18 0 01-7.92-3.29L607 1572.42a11.21 11.21 0 1115.85-15.85l32.27 32.27a11.22 11.22 0 01-7.93 19.14zM839.33 1474.41a11.17 11.17 0 01-7.93-3.28l-32.27-32.27A11.21 11.21 0 01815 1423l32.28 32.27a11.21 11.21 0 01-7.93 19.13zM829.37 1636.34a11.17 11.17 0 01-7.93-3.28l-32.27-32.27A11.21 11.21 0 01805 1584.94l32.27 32.27a11.21 11.21 0 01-7.92 19.13zM551 1346.25a11.15 11.15 0 01-7.92-3.29l-32.27-32.27a11.21 11.21 0 1115.85-15.85l32.27 32.27a11.22 11.22 0 01-7.93 19.14zM512.06 1608a11.18 11.18 0 01-7.92-3.29l-32.27-32.27a11.21 11.21 0 1115.85-15.85L520 1588.84a11.22 11.22 0 01-7.93 19.14zM507.09 1763.33a11.17 11.17 0 01-7.93-3.28l-32.26-32.27a11.21 11.21 0 1115.85-15.85L515 1744.2a11.21 11.21 0 01-7.92 19.13zM457.73 1861.31H426.07l-11-11a11.2 11.2 0 1115.84-15.84zM647.37 1752.28a11.18 11.18 0 01-7.93-3.29l-32.27-32.27A11.21 11.21 0 01623 1700.87l32.27 32.27a11.22 11.22 0 01-7.92 19.14zM797.1 1763.33a11.17 11.17 0 01-7.93-3.28l-32.27-32.27a11.21 11.21 0 0115.85-15.85L805 1744.2a11.21 11.21 0 01-7.92 19.13zM672.55 1861.31H641.11l-18-18A11.2 11.2 0 01639 1827.46l32.26 32.25A10.48 10.48 0 01672.55 1861.31zM815.75 1861.31H784.07l-11-11a11.2 11.2 0 1115.85-15.84zM949.28 1810.44a11.22 11.22 0 01-7.93-3.28l-32.27-32.27A11.21 11.21 0 01924.93 1759l32.28 32.26a11.21 11.21 0 01-7.93 19.14zM976.71 1650.49a11.17 11.17 0 01-7.93-3.28l-32.27-32.27a11.21 11.21 0 1115.85-15.85l32.27 32.27a11.21 11.21 0 01-7.92 19.13zM1007.08 1490.55a11.18 11.18 0 01-7.93-3.29L966.88 1455a11.21 11.21 0 1115.86-15.85l32.26 32.27a11.22 11.22 0 01-7.92 19.14zM1107.91 1796.29A11.18 11.18 0 011100 1793l-32.26-32.27a11.21 11.21 0 0115.85-15.85l32.26 32.27a11.22 11.22 0 01-7.92 19.14zM1124 1640.24a11.17 11.17 0 01-7.92-3.28l-32.27-32.27a11.21 11.21 0 0115.85-15.85l32.27 32.27a11.21 11.21 0 01-7.93 19.13zM1165.71 1476.39a11.17 11.17 0 01-7.93-3.28l-32.27-32.27a11.21 11.21 0 0115.85-15.85l32.28 32.27a11.21 11.21 0 01-7.93 19.13zM1272.53 1763.33a11.17 11.17 0 01-7.92-3.28l-32.27-32.27a11.21 11.21 0 1115.85-15.85l32.27 32.27a11.21 11.21 0 01-7.93 19.13zM1291.16 1589.46a11.15 11.15 0 01-7.92-3.29L1251 1553.9a11.21 11.21 0 1115.85-15.85l32.27 32.27a11.22 11.22 0 01-7.93 19.14zM1330.34 1443.44a11.17 11.17 0 01-7.93-3.28l-32.27-32.27A11.21 11.21 0 011306 1392l32.27 32.27a11.21 11.21 0 01-7.92 19.13zM1430 1720.81a11.17 11.17 0 01-7.93-3.28l-32.27-32.27a11.21 11.21 0 0115.86-15.85l32.26 32.27a11.21 11.21 0 01-7.92 19.13zM1413.86 1862.73a11.15 11.15 0 01-7.92-3.29l-32.27-32.27a11.21 11.21 0 1115.85-15.85l32.27 32.27a11.22 11.22 0 01-7.93 19.14zM1561.39 1862.73a11.18 11.18 0 01-7.93-3.29l-32.26-32.27a11.21 11.21 0 1115.85-15.85l32.26 32.27a11.22 11.22 0 01-7.92 19.14zM1246.62 1861.31h-31.71l-8.2-8.2a11.2 11.2 0 0115.84-15.84zM1339 1297.84a11.17 11.17 0 01-7.93-3.28l-32.27-32.27a11.21 11.21 0 1115.85-15.85l32.27 32.27a11.21 11.21 0 01-7.92 19.13zM1462.27 1573.32a11.17 11.17 0 01-7.93-3.28l-32.27-32.27a11.21 11.21 0 1115.85-15.85l32.27 32.27a11.21 11.21 0 01-7.92 19.13zM1577.52 1713.37a11.17 11.17 0 01-7.92-3.28l-32.27-32.27a11.21 11.21 0 0115.85-15.85l32.27 32.27a11.21 11.21 0 01-7.93 19.13zM1598.64 1534.51a11.13 11.13 0 01-7.92-3.28L1558.45 1499a11.21 11.21 0 1115.85-15.85l32.27 32.27a11.21 11.21 0 01-7.93 19.13zM1487.8 1400.92a11.17 11.17 0 01-7.93-3.28l-32.27-32.27a11.21 11.21 0 0115.85-15.85l32.27 32.27a11.21 11.21 0 01-7.92 19.13zM371.5 1619.13a11.18 11.18 0 01-7.93-3.29l-32.27-32.27a11.21 11.21 0 0115.85-15.85L379.42 1600a11.22 11.22 0 01-7.92 19.14z"/></g></svg>