<svg xmlns="http://www.w3.org/2000/svg" data-name="Layer 1" viewBox="0 0 2000 2000"><path fill="#8555c9" d="M501.17,1378.74a3.53,3.53,0,0,1-.79-.08c-1.26-.28-30.93-7.07-42.67-34.81-10.31-24.37-3.3-56.5,20.85-95.5a3.66,3.66,0,0,1,6.22,3.85c-22.8,36.83-29.65,66.67-20.36,88.72,10.21,24.25,37.26,30.53,37.53,30.59a3.66,3.66,0,0,1-.78,7.23Z"/><path fill="#000002" d="M1202.73 570.05c-11.06-38.73-47-8.3-47-8.3M1378.38 1412.26c16.3-22.6-5.37-23.33-18.51-41.5s5.85-32.86 5.85-32.86"/><path fill="#12033f" d="M714.22,636.67S590.71,722.33,599.59,992.48s132.25,485.29,132.25,485.29l530.85-44.46,176.63-222.22L1137.19,488.45Z"/><path fill="#ffb3d6" d="M1578.86,1805.59v65.94H359.06v-65.94c0-2.12,0-4.24.05-6.34,0-1.88.05-3.76.1-5.64,0-.48,0-1,0-1.46,0-1.39.08-2.76.1-4.15.1-2.75.22-5.49.34-8.22.1-1.92.17-3.83.29-5.73.15-2.32.3-4.61.44-6.93.12-1.56.25-3.17.34-4.76.37-4.41.78-8.83,1.22-13.19.32-2.93.64-5.86,1-8.79.37-3.22.78-6.46,1.25-9.68.54-3.85,1.1-7.68,1.71-11.49q2.41-14.89,5.58-29.52c.22-1,.47-2.07.69-3.1.29-1.39.63-2.75.95-4.12.24-1.15.53-2.32.8-3.46.69-2.81,1.37-5.59,2.08-8.35q4.38-17,9.78-33.51c.51-1.57,1-3.1,1.56-4.66s1-3.1,1.58-4.66,1.08-3.1,1.64-4.61c1.63-4.61,3.37-9.23,5.15-13.79.53-1.36,1-2.7,1.56-4,.71-1.73,1.41-3.51,2.14-5.27.61-1.44,1.18-2.85,1.79-4.27,1.26-3,2.56-6,3.87-9s2.64-5.91,4-8.88c2-4.39,4.12-8.81,6.32-13.15.7-1.44,1.44-2.86,2.17-4.32s1.49-2.88,2.22-4.32q4.47-8.62,9.24-17c.81-1.39,1.61-2.8,2.42-4.19q2.44-4.18,4.93-8.32c2.49-4.15,5.05-8.25,7.63-12.32.88-1.37,1.76-2.71,2.64-4,2.19-3.39,4.41-6.74,6.71-10s4.58-6.61,6.92-9.88q14-19.58,29.77-37.84,13.32-15.46,27.83-29.93c2.39-2.39,4.83-4.78,7.27-7.15q3.22-3.11,6.49-6.14c4.37-4.08,8.81-8,13.32-12s9-7.73,13.68-11.52,9.32-7.46,14.06-11.07c2.36-1.81,4.75-3.64,7.17-5.39h0c5.49-4,11.08-8,16.71-11.83s11.4-7.54,17.23-11.2c2.34-1.44,4.7-2.9,7.07-4.32.93-.56,1.85-1.12,2.78-1.66,1.49-.92,3-1.83,4.56-2.68,1.76-1.05,3.52-2.05,5.27-3.05.91-.49,1.76-1,2.64-1.46s1.73-1,2.61-1.47c.39-.22.78-.41,1.14-.63q12.45-6.84,25.33-13c3-1.44,6-2.86,9-4.22,2.71-1.25,5.44-2.49,8.18-3.69v0c28.27-12.47,51.4-22.57,77.65-30.08a70,70,0,0,0,50.2-57.69l17.32-127.49,5.66-41.72h271.39l5.1,41.77,15.74,128.68a69.69,69.69,0,0,0,49.91,58.52c1.22.34,2.49.71,3.83,1l8.41,2.34,1.25.39c2.51.71,5,1.47,7.49,2.22l1.32.42c2.85.88,5.68,1.78,8.51,2.71s5.9,2,8.85,3,5.86,2,8.79,3.12q6.59,2.42,13.05,5c4.34,1.73,8.63,3.48,12.9,5.31.71.3,1.44.64,2.15,1,1.71.75,3.46,1.48,5.15,2.22.44.22.85.41,1.29.58s1.12.49,1.66.76c2.56,1.14,5.15,2.34,7.71,3.53,3,1.4,5.93,2.83,8.85,4.27q3.33,1.62,6.59,3.3c3.27,1.66,6.54,3.36,9.76,5.1s6.46,3.48,9.66,5.31c2.85,1.59,5.68,3.22,8.49,4.86,5.24,3.1,10.46,6.27,15.61,9.54,1.76,1.07,3.44,2.17,5.15,3.29q5.12,3.33,10.17,6.73c3.32,2.3,6.66,4.61,10,7,2.66,1.88,5.27,3.81,7.88,5.73q7.83,5.79,15.42,11.88,3.81,3,7.54,6.15c2.49,2,5,4.15,7.44,6.25s4.88,4.24,7.29,6.41q5.46,4.83,10.76,9.83t10.49,10.13c2.86,2.85,5.71,5.73,8.51,8.63s5.59,5.88,8.35,8.86,5.46,6,8.12,9,5.32,6.12,7.93,9.22c2.1,2.46,4.15,5,6.2,7.49s4,5.05,6.07,7.59,4,5.12,5.9,7.71,3.91,5.19,5.81,7.83c3.85,5.24,7.56,10.58,11.17,16,1,1.44,1.91,2.86,2.88,4.29.83,1.27,1.66,2.57,2.51,3.86,2.61,4,5.2,8.1,7.69,12.24a540,540,0,0,1,39.71,79c.64,1.54,1.25,3,1.83,4.59,1.22,3,2.39,6.15,3.54,9.22.59,1.56,1.15,3.12,1.71,4.66.68,1.93,1.36,3.83,2,5.76,1.46,4,2.8,8.14,4.1,12.24.56,1.73,1.09,3.42,1.65,5.15.3,1,.57,1.95.91,2.93.36,1.27.75,2.53,1.12,3.8,1.27,4.27,2.49,8.56,3.63,12.88.54,2,1,3.93,1.57,5.88s1,3.95,1.48,5.93c.34,1.41.69,2.83,1,4.27.27,1.1.53,2.22.78,3.34,1.51,6.51,2.9,13.1,4.15,19.69.31,1.68.63,3.32.92,5s.61,3.32.88,5c.85,5,1.66,10,2.37,15.05.17,1.12.34,2.29.49,3.46.21,1.54.41,3.12.63,4.68.51,4,1,8.08,1.41,12.15a.77.77,0,0,0,0,.25c.19,2.07.41,4.12.61,6.22.27,3,.51,6.07.76,9.12.12,1.64.21,3.27.34,4.93.24,3.42.41,6.85.58,10.32.08,1.44.15,2.88.17,4.32,0,.44,0,.85.08,1.26,0,1.59.09,3.2.14,4.79.05,1.39.1,2.78.12,4.14,0,1.74.08,3.44.08,5.18C1578.83,1801.35,1578.86,1803.47,1578.86,1805.59Z"/><path fill="#ff8533" d="M1578.86,1805.59v65.94H359.06v-65.94c0-2.12,0-4.24.05-6.34,0-1.88.05-3.76.1-5.64,0-.48,0-1,0-1.46,0-1.39.08-2.76.1-4.15.1-2.75.22-5.49.34-8.22.07-1.58.15-3.17.24-4.75,0-.32,0-.66,0-1,.15-2.32.3-4.61.44-6.93.12-1.56.25-3.17.34-4.76.37-4.41.78-8.83,1.22-13.19.32-2.93.64-5.86,1-8.79.37-3.22.78-6.46,1.25-9.68,0-.24.07-.46.1-.71.51-3.61,1.05-7.22,1.61-10.78q2.41-14.89,5.58-29.52c.22-1,.47-2.07.69-3.1.29-1.39.63-2.75.95-4.12.24-1.15.53-2.32.8-3.46.69-2.81,1.37-5.59,2.08-8.35.65-2.53,1.31-5.05,2-7.56q3.59-13.1,7.78-25.95c.51-1.57,1-3.1,1.56-4.66s1-3.1,1.58-4.66,1.08-3.1,1.64-4.61c.61-1.71,1.24-3.44,1.88-5.15q1.35-3.71,2.78-7.37c.17-.44.32-.85.49-1.27.53-1.36,1-2.7,1.56-4,.71-1.73,1.41-3.51,2.14-5.27.61-1.44,1.18-2.85,1.79-4.27,1.26-3,2.56-6,3.87-9s2.64-5.91,4-8.88c2-4.39,4.12-8.81,6.32-13.15.7-1.44,1.44-2.86,2.17-4.32s1.49-2.88,2.22-4.32c.88-1.68,1.76-3.36,2.66-5q3.18-6.08,6.58-12c.81-1.39,1.61-2.8,2.42-4.19q2.44-4.18,4.93-8.32c1.27-2.13,2.56-4.22,3.85-6.32s2.51-4,3.78-6c.88-1.37,1.76-2.71,2.64-4s1.8-2.76,2.71-4.13c1.31-2,2.63-4,4-5.9q3.41-5,6.92-9.88,14-19.58,29.77-37.84c3.85-4.48,7.8-8.92,11.83-13.27,3.1-3.36,6.24-6.7,9.44-10,2.15-2.25,4.34-4.49,6.56-6.69,2.39-2.39,4.83-4.78,7.27-7.15q3.22-3.11,6.49-6.14c4.37-4.08,8.81-8,13.32-12,1.19-1,2.41-2.07,3.63-3.1,2.57-2.19,5.15-4.37,7.76-6.51.76-.64,1.51-1.27,2.29-1.91q6.93-5.67,14.06-11.07c2.36-1.81,4.75-3.64,7.17-5.39h0c5.49-4,11.08-8,16.71-11.83s11.4-7.54,17.23-11.2c2.34-1.44,4.7-2.9,7.07-4.32.78-.49,1.59-1,2.37-1.41l.41-.25c1.49-.92,3-1.83,4.56-2.68,1.76-1.05,3.52-2.05,5.27-3.05.91-.49,1.76-1,2.64-1.46s1.73-1,2.61-1.47c.39-.22.78-.41,1.14-.63q12.45-6.84,25.33-13l3.05-1.47c1.95-.92,3.92-1.85,5.92-2.75,2.71-1.25,5.44-2.49,8.18-3.69v0c2.78-1.25,5.53-2.44,8.22-3.61a292.63,292.63,0,0,0,44.59,83.23c1.17,1.54,2.34,3,3.54,4.54a295.26,295.26,0,0,0,41.47,42.47c1,.88,2,1.73,3.1,2.56a292.52,292.52,0,0,0,175.74,65.82c3.27.12,6.56.17,9.88.17a299.59,299.59,0,0,0,35.15-2.07,293.22,293.22,0,0,0,150.49-63.92,288.52,288.52,0,0,0,28.33-26.37q8.52-9,16.19-18.66a294.73,294.73,0,0,0,48.14-87.7c.85.34,1.68.71,2.53,1.07s1.44.64,2.15,1c1.71.75,3.46,1.48,5.15,2.22.44.22.85.41,1.29.58s1.12.49,1.66.76c2.56,1.14,5.15,2.34,7.71,3.53,3,1.4,5.93,2.83,8.85,4.27q3.33,1.62,6.59,3.3c3.27,1.66,6.54,3.36,9.76,5.1l1.93,1c2.61,1.39,5.17,2.83,7.73,4.29,2.85,1.59,5.68,3.22,8.49,4.86,5.24,3.1,10.46,6.27,15.61,9.54,1.76,1.07,3.44,2.17,5.15,3.29,2.68,1.76,5.36,3.51,8,5.32.74.46,1.44.93,2.15,1.41,3.32,2.3,6.66,4.61,10,7,2.66,1.88,5.27,3.81,7.88,5.73q7.83,5.79,15.42,11.88,3.81,3,7.54,6.15c2.17,1.78,4.34,3.61,6.49,5.44l1,.81c2.44,2.12,4.88,4.24,7.29,6.41q5.46,4.83,10.76,9.83l.1.1c3.51,3.29,6.95,6.61,10.39,10,2.86,2.85,5.71,5.73,8.51,8.63s5.59,5.88,8.35,8.86l.34.36q3.95,4.29,7.78,8.64c2.66,3,5.32,6.12,7.93,9.22.59.68,1.17,1.37,1.73,2.07,1.51,1.79,3,3.61,4.47,5.42,2,2.49,4,5.05,6.07,7.59s4,5.12,5.9,7.71,3.91,5.19,5.81,7.83c3.85,5.24,7.56,10.58,11.17,16,.54.83,1.1,1.64,1.66,2.46.39.61.81,1.22,1.22,1.83.83,1.27,1.66,2.57,2.51,3.86,2.61,4,5.2,8.1,7.69,12.24q8.11,13.29,15.46,27.11c1.13,2.12,2.25,4.22,3.32,6.36q11.54,22.14,20.93,45.5c.64,1.54,1.25,3,1.83,4.59,1.22,3,2.39,6.15,3.54,9.22.15.41.29.83.44,1.22.44,1.15.85,2.29,1.27,3.44.68,1.93,1.36,3.83,2,5.76,1.46,4,2.8,8.14,4.1,12.24.56,1.73,1.09,3.42,1.65,5.15.3,1,.57,1.95.91,2.93.36,1.27.75,2.53,1.12,3.8,1.15,3.88,2.27,7.78,3.32,11.71.09.39.22.78.31,1.17.54,2,1,3.93,1.57,5.88s1,3.95,1.48,5.93l.52,2.15.51,2.12c.27,1.1.53,2.22.78,3.34,1.51,6.51,2.9,13.1,4.15,19.69.31,1.68.63,3.32.92,5s.61,3.32.88,5c.85,5,1.66,10,2.37,15.05.07.51.14,1,.22,1.58s.19,1.25.27,1.88c.21,1.54.41,3.12.63,4.68.51,4,1,8.08,1.41,12.15a.77.77,0,0,0,0,.25c.19,2.07.41,4.12.61,6.22.27,3,.51,6.07.76,9.12.12,1.64.21,3.27.34,4.93.14,1.93.24,3.85.34,5.81.1,1.48.17,3,.24,4.51s.15,2.88.17,4.32c0,.44,0,.85.08,1.26,0,1.59.09,3.2.14,4.79.05,1.39.1,2.78.12,4.14,0,1.74.08,3.44.08,5.18C1578.83,1801.35,1578.86,1803.47,1578.86,1805.59Z"/><path fill="#000002" d="M1109.74,1094.85l-72.65,77.79c-44.18,34.74-92.09,34.74-136.27,0l-73.23-77.84,5.66-41.72h271.39Z"/><path fill="#ffb3d6" d="M1283.24,528l-56.65,261.81-15.37,71-2.56,11.88-7.83,36.25-6.22,28.79-1.46,6.73c-3.37,12.69-6.42,26.08-10,39.18a244,244,0,0,1-9.59,28.71,101.43,101.43,0,0,1-23.1,33.86,104.08,104.08,0,0,1-16.93,13.44l-96.41,61.77c-44.18,34.74-92.09,34.74-136.27,0l-98.21-62.91a104.06,104.06,0,0,1-37.4-41.6A184.79,184.79,0,0,1,753.38,985a375.57,375.57,0,0,1-8.64-40.59l-16.51-76.28v0l-30-138.68L654.65,528Z"/><path fill="#fff" d="M1148.41,791.35l-122.56-2.59s8.27-27.71,40.2-37.64a79.45,79.45,0,0,1,21.08-3.41,64.88,64.88,0,0,1,24,3.41C1140.63,761.42,1148.41,791.35,1148.41,791.35Z"/><path fill="#000006" d="M1164.82,795h-19.25l-.71-2.74c-.46-1.73-11.71-42.38-57.61-40.91-46.18,1.57-57.45,34.67-57.91,36.07a3.66,3.66,0,0,1-7-2.23c.13-.39,13.13-39.4,64.63-41.15,44.48-1.42,60.39,33.45,64,43.64h13.77a3.66,3.66,0,0,1,0,7.32Z"/><path fill="#000002" d="M1113.45,761.61a24.86,24.86,0,1,1-47.4-10.49,79.45,79.45,0,0,1,21.08-3.41,64.88,64.88,0,0,1,24,3.41A24.71,24.71,0,0,1,1113.45,761.61Z"/><circle cx="1087.91" cy="755" r="4.84" fill="#fff"/><path fill="#000002" d="M1153.32 699a71.43 71.43 0 00-27.85-14.87c-14.7-3.84-29.4-2.45-47.87 7.55-26.39 14.3-80.27 43.83-80.27 43.83s2 13.89 35.85 0 64.31-47.44 118.46-33l12.2 5.34zM764.74 699a71.39 71.39 0 0127.84-14.87c14.71-3.84 29.41-2.45 47.88 7.55 26.39 14.3 80.27 43.83 80.27 43.83s-2.05 13.89-35.85 0-64.31-47.44-118.46-33l-12.21 5.34z"/><path fill="#c93981" d="M1007.9,929.35H931.1A9.63,9.63,0,0,1,922,916.71L950.12,816a3.66,3.66,0,0,1,7,2L929,918.84a2.4,2.4,0,0,0,.28,2.23,2.28,2.28,0,0,0,1.87,1h76.8a2.31,2.31,0,0,0,1.88-1,2.34,2.34,0,0,0,.32-2.08L981.83,817.92a3.66,3.66,0,1,1,7-2l28.22,100.92a9.42,9.42,0,0,1-1.4,8.5A9.52,9.52,0,0,1,1007.9,929.35Z"/><path fill="#000002" d="M1049.29,980.29a82.11,82.11,0,0,1-159.57,0Z"/><path fill="#f78fc4" d="M1208.66,870.9l-15.05,69.61c-3.26,12.3-6.22,25.29-9.72,38a94.19,94.19,0,1,1,24.77-107.61Z"/><path fill="#c93981" d="M1194.61,937.72l-1.46,6.73c-3.37,12.69-6.42,26.08-10,39.18a244,244,0,0,1-9.59,28.71,101.43,101.43,0,0,1-23.1,33.86c-13.66-16.32-21-39.57-11.19-68.84C1147.92,951.36,1174.58,941.48,1194.61,937.72Z" opacity=".22"/><g opacity=".28"><path fill="#fff" d="M440.27 1520.32v351.21h-45V1610.7c.17-.44.32-.85.49-1.27.53-1.36 1-2.7 1.56-4 .71-1.73 1.41-3.51 2.14-5.27.61-1.44 1.18-2.85 1.79-4.27 1.26-3 2.56-6 3.87-9s2.64-5.91 4-8.88c2-4.39 4.12-8.81 6.32-13.15.7-1.44 1.44-2.86 2.17-4.32s1.49-2.88 2.22-4.32c.88-1.68 1.76-3.36 2.66-5q3.18-6.08 6.58-12c.81-1.39 1.61-2.8 2.42-4.19q2.44-4.18 4.93-8.32C437.69 1524.51 439 1522.42 440.27 1520.32zM556.39 1387.71v483.82h-45V1429.28c2.15-2.25 4.34-4.49 6.56-6.69 2.39-2.39 4.83-4.78 7.27-7.15q3.22-3.11 6.49-6.14c4.37-4.08 8.81-8 13.32-12 1.19-1 2.41-2.07 3.63-3.1C551.2 1392 553.78 1389.85 556.39 1387.71zM668.32 1316.52v555h-45V1340.58l.41-.25c1.49-.92 3-1.83 4.56-2.68 1.76-1.05 3.52-2.05 5.27-3.05.91-.49 1.76-1 2.64-1.46s1.73-1 2.61-1.47c.39-.22.78-.41 1.14-.63q12.45-6.84 25.33-13zM780.24 1436.69v434.84h-45V1389.68c1.17 1.54 2.34 3 3.54 4.54A295.26 295.26 0 00780.24 1436.69zM892.19 1495.12v376.41h-45V1478.9A291.07 291.07 0 00892.19 1495.12zM1004.11 1503.17v368.36h-45V1505.07c3.27.12 6.56.17 9.88.17A299.59 299.59 0 001004.11 1503.17zM1116 1465.87v405.66h-45V1487A290.74 290.74 0 001116 1465.87zM1228 1350.55v521h-45V1412.88q8.52-9 16.19-18.66A289.63 289.63 0 001228 1350.55zM1339.88 1356.63v514.9h-45v-542.2c2.61 1.39 5.17 2.83 7.73 4.29 2.85 1.59 5.68 3.22 8.49 4.86 5.24 3.1 10.46 6.27 15.61 9.54 1.76 1.07 3.44 2.17 5.15 3.29C1334.54 1353.07 1337.22 1354.82 1339.88 1356.63zM1453.44 1459.18v412.35h-45V1411.37c3.51 3.29 6.95 6.61 10.39 10 2.86 2.85 5.71 5.73 8.51 8.63s5.59 5.88 8.35 8.86l.34.36q3.95 4.29 7.78 8.64c2.66 3 5.32 6.12 7.93 9.22C1452.3 1457.79 1452.88 1458.48 1453.44 1459.18zM1563.76 1663.1v208.43h-45v-314q11.54 22.14 20.93 45.5c.64 1.54 1.25 3 1.83 4.59 1.22 3 2.39 6.15 3.54 9.22.15.41.29.83.44 1.22.44 1.15.85 2.29 1.27 3.44.68 1.93 1.36 3.83 2 5.76 1.46 4 2.8 8.14 4.1 12.24.56 1.73 1.09 3.42 1.65 5.15.3 1 .57 1.95.91 2.93.36 1.27.75 2.53 1.12 3.8 1.15 3.88 2.27 7.78 3.32 11.71z"/><path fill="#fff" d="M780.24 1436.69c1 .88 2 1.73 3.1 2.56H501.92c3.1-3.36 6.24-6.7 9.44-10 2.15-2.25 4.34-4.49 6.56-6.69 2.39-2.39 4.83-4.78 7.27-7.15q3.22-3.11 6.49-6.14c4.37-4.08 8.81-8 13.32-12 1.19-1 2.41-2.07 3.63-3.1H738.77A295.26 295.26 0 00780.24 1436.69zM1436 1439.25H1154.6a288.52 288.52 0 0028.33-26.37q8.52-9 16.19-18.66h190.19l1 .81c2.44 2.12 4.88 4.24 7.29 6.41q5.46 4.83 10.76 9.83l.1.1c3.51 3.29 6.95 6.61 10.39 10 2.86 2.85 5.71 5.73 8.51 8.63s5.59 5.88 8.35 8.86zM1515.4 1551.18H422.49q3.18-6.08 6.58-12c.81-1.39 1.61-2.8 2.42-4.19q2.44-4.18 4.93-8.32c1.27-2.13 2.56-4.22 3.85-6.32v-14.18H1488.52c.39.61.81 1.22 1.22 1.83.83 1.27 1.66 2.57 2.51 3.86 2.61 4 5.2 8.1 7.69 12.24Q1508.05 1537.36 1515.4 1551.18zM1559.88 1663.1H378q3.59-13.1 7.78-25.95c.51-1.57 1-3.1 1.56-4.66s1-3.1 1.58-4.66 1.08-3.1 1.64-4.61c.61-1.71 1.24-3.44 1.88-5.15h1153c.44 1.15.85 2.29 1.27 3.44.68 1.93 1.36 3.83 2 5.76 1.46 4 2.8 8.14 4.1 12.24.56 1.73 1.09 3.42 1.65 5.15.3 1 .57 1.95.91 2.93.36 1.27.75 2.53 1.12 3.8C1557.71 1655.27 1558.83 1659.17 1559.88 1663.1zM1578 1775H359.91c0-.32 0-.66 0-1 .15-2.32.3-4.61.44-6.93.12-1.56.25-3.17.34-4.76.37-4.41.78-8.83 1.22-13.19.32-2.93.64-5.86 1-8.79.37-3.22.78-6.46 1.25-9.68 0-.24.07-.46.1-.71H1573.59c.09.64.19 1.25.27 1.88.21 1.54.41 3.12.63 4.68.51 4 1 8.08 1.41 12.15a.77.77 0 000 .25c.19 2.07.41 4.12.61 6.22.27 3 .51 6.07.76 9.12.12 1.64.21 3.27.34 4.93C1577.78 1771.15 1577.88 1773.07 1578 1775z"/><rect width="1219.8" height="29.59" x="359.06" y="1841.94" fill="#fff"/></g><path fill="#f78fc4" d="M1211.22,860.8l-2.56,11.88-7.83,36.25c-2.24-7.88-2.71-16.95-1.31-27.86C1200.52,873.24,1205.25,866.85,1211.22,860.8Z"/><path fill="#c93981" d="M1283.24,528l-56.65,261.81a25.19,25.19,0,0,0-12.66,1.88c-.34.29-.7.56-1,.85-13.61,10.86-33.47-1.76-29.15-18.64,5.49-21.47,2.1-40.83-11.17-38.47-21.42,3.81-55.5-1.58-70.72-9.56s-13.08-37,10.15-69.62-9.44-55.87-28.86-47.89-29.91,11.61-48.77,4.36c-18.34-7.07-12-36.93-11.66-38.54l0-.07c-55.84-36-175.62,0-175.62,0-105.68,38.59-138.91,108-148.89,155.37L654.65,528Z" opacity=".22"/><path fill="#5020af" d="M1730.93,1272.44c-12.29,41.13-81.26,53.67-99,47.06s-19.84-1.39-16.37,16.69,13.39-.4,13.39-.4,16.27,17.76,4.44,40-54.52,14.08-54.52,14.08,26.39,24.42,5.68,59.18-70.77,9.81-70.77,9.81c-20,27.66-58.4-1.42-58.4-1.42-2.56,35.94-36.37,20.37-36.37,20.37,6.24,11.52,6.24,27.86-9.13,43.72s-49,14.93-49,14.93c5.39,15.22-16.2,27.49-34.86,26s-38.76.49-30.91,17.67,58.41,9.83,52,32.88-40.22,25.52-40.22,25.52c14.71-3.42,26-14.71,24-24.54s-16.45-11-39.89-23.35-19.3-39.3,1.39-45.52,11-17.91,11-17.91-10.3,2-22.15-15,1.27-37.15,24.76-37.15,33-12.76,33-12.76c13.23-43.57-18.58-19-44.91-63.26s16-74.11,16-74.11-39,6.2-55.84-4.44.17-32,.17-32,24.71-28.52-23.81-7.08-94.87-8-105.19-57.91,27.73-84.14,48-87.11,20.2-10.13,7.71-14.89-23.79-13.66-19-34.47,49.25-17.93,23.59-31.88-48.77-44.11-34.28-87.58,79.24-41.91,79.24-41.91c-15.37-13.66-22.2-29.08-19-54.37s45.65-35.69,42.77-68.46-28.35-21-28.35-21l-1.05.85c-13.61,10.87-33.46-1.76-29.15-18.63,5.48-21.48,2.11-40.85-11.17-38.48-21.42,3.81-55.5-1.58-70.72-9.56s-13.08-37,10.14-69.62-9.44-55.87-28.86-47.89-29.9,11.61-48.76,4.37c-18.35-7.08-12-36.94-11.66-38.55l0-.07c-55.84-36-175.62,0-175.62,0C731.13,611.12,709.54,703.26,706.76,746.44a132.45,132.45,0,0,0,.22,23.39c-38.81,64.23-61.69,92.46-16.76,104.44s70.6,73.47,36.57,104.36-45.11,79.92-41.93,97.33,35.61,11.08,58.93,31.64,19.42,54.62-4.34,70.43-42.71,27.72-13.44,43.55,6.32,41.13,6.32,41.13c10.29,26.91-29.28,26.91-20.57,51.45s1,33.34-19.49,46.18-14.27,25.2-10,26.9,16.18.44,15.32,19.57-25.1,30.22-25.1,30.22,28.52,9.37,8.1,22.54S670,1476.65,670,1476.65s7.79,2.61,7.79,15.57-12.32,6.48-18.15,15.56c-5.52,8.54,6.24,20,7.63,21.3-1.68-1.13-16.86-11.66-19.32-24.55-2.59-13.61,13-12.31,13.61-32.42S624,1464.33,611,1454s14.27-31.49,14.27-31.49c-83.4,26.4-80.28-25.15-80.28-25.15-13.69,11.54-54.91,55.2-54.91,55.2-38.16-5.68-12.91-59-12.91-59-34.05,4.24-90.24-24.69-68.09-94.48s103.83-73.21,103.83-73.21c-28.08-3.42-28.93-33.2-28.93-33.2-45.11,15.32-124.27-11.06-112.37-91.07s86-130.25,86-130.25c-52.76-27.22-4.24-94.48,23.79-89.38s28.15-9.34,17.07-19.56-27.22-35.77-8.51-71,67.77-33.57,67.77-33.57-38.18-22.25-5.73-75.67,90.7-74.48,90.7-74.48c-33.4-19.25-39.16-76.38-10.52-107.87S714,481.9,714,481.9c.8-74.92,30.61-153.88,58-155.49s24.17,37,24.17,37c139.4-96.68,226.41-77.35,279.6-54s31.42,86.21,31.42,86.21c89.45-63.65,191.76-20.93,230.45,40.3S1332,548.35,1332,548.35c73.33,7.61,48.35,56,39.49,62.48s-28.2,28.2-17.73,34.64,61.23.8,71.72,46.74-32.79,53.79-32.79,65.57,22.49,32.72,67.77,29.08,65.62.83,81.23,26,1.76,64.25-23.42,81.62-38.2,36.45-38.2,36.45c39.94-12.15,82.48-7,92,45.15,9.39,51.33-25,92.56-26,93.73.85-.49,19.44-11.2,70.33-3.69,52.13,7.69,68.38,64.94,26.49,71.8s7.71,18.2,7.71,18.2C1708.71,1177.4,1743.23,1231.29,1730.93,1272.44Z"/><path fill="#12033f" d="M1034.92,564.33c-55.84-36-175.62,0-175.62,0C731.13,611.12,709.54,703.26,706.76,746.44,700.64,695,668,604.12,696.05,575.11c33.06-34.25,119.56-3.54,119.56-3.54-17.42-27.17,18.64-139.36,128.47-120.48S1034.92,564.33,1034.92,564.33Z"/><path fill="#8555c9" d="M1110.43 492.11a3.6 3.6 0 01-1-.13 3.67 3.67 0 01-2.56-4.5c4.25-15.47 3-28.5-3.68-38.7-11.76-17.93-36.74-21.68-37-21.71a3.66 3.66 0 011-7.25c1.15.16 28.44 4.2 42.06 24.9 7.92 12 9.49 27.09 4.65 44.7A3.67 3.67 0 011110.43 492.11zM1283.25 563.87a3.65 3.65 0 01-3.66-3.59c-.37-21.88-5.44-36.41-15.07-43.19-9.92-7-21.76-3.09-21.88-3.05a3.66 3.66 0 01-2.38-6.92c.62-.22 15.36-5.17 28.38 3.92 11.71 8.19 17.85 24.71 18.27 49.11a3.66 3.66 0 01-3.6 3.72zM1515.21 1395.23c-20.58 0-39.53-11-40.5-11.58a3.66 3.66 0 113.72-6.3c.26.15 26.69 15.45 48.69 8.94 9.59-2.84 17.07-9.53 22.24-19.87 15.18-30.36-11-53.44-23.66-64.53-5.57-4.9-7.87-6.92-7.49-9.91a4.26 4.26 0 012.36-3.27c.77-.38 76.83-40.23 78.2-106.06.63-30.12-12.39-57.11-35.72-74.07-16.92-12.3-36.83-17.12-50.7-12.29-35.93 12.49-71 21-84.56-1.58-6.44-10.73 4.15-29.07 16.41-50.31 14.27-24.71 30.45-52.72 16.16-65a3.66 3.66 0 114.76-5.55c18.9 16.2 1.12 47-14.58 74.18-10.17 17.62-20.7 35.84-16.47 42.89 10.86 18.09 44.45 9.36 75.87-1.58 16.08-5.59 38.61-.37 57.41 13.29 25.29 18.39 39.41 47.6 38.73 80.14-1.3 62.82-63.57 102-78.87 110.63 1 .91 2.19 2 3.32 3 12.89 11.34 43.08 37.9 25.38 73.3-6.12 12.24-15.12 20.19-26.74 23.62A49.28 49.28 0 011515.21 1395.23zm8.65-100h0zM1392.21 945.74a3.66 3.66 0 01-1.73-6.89c1.49-.8 36.79-20.36 36.79-64.58 0-11.92-3.62-21.4-10.77-28.2-14.15-13.42-37.7-12.38-37.93-12.36a3.66 3.66 0 01-.39-7.31c1.08 0 26.86-1.26 43.32 14.33 8.69 8.23 13.09 19.52 13.09 33.54 0 48.7-39 70.15-40.66 71A3.68 3.68 0 011392.21 945.74zM1513.77 1462.48a3.67 3.67 0 01-3.18-5.48c.09-.16 6.53-11.69 3.51-21.6-1.42-4.68-4.67-8.23-9.94-10.87a3.66 3.66 0 113.27-6.54c7.08 3.54 11.69 8.69 13.69 15.33 3.92 13-3.84 26.74-4.17 27.32A3.66 3.66 0 011513.77 1462.48zM1419 1481.43a3.66 3.66 0 01-1.94-.56c-8.65-5.43-22.4-20.76-12.49-39.92a3.66 3.66 0 016.5 3.36c-9.27 17.94 9.1 29.87 9.89 30.37a3.66 3.66 0 01-2 6.75zM1309.51 1005.45h-.13a3.66 3.66 0 01-3.53-3.78c.93-26.78-22.54-33.39-23.54-33.66a3.66 3.66 0 011.87-7.07c.3.07 30.11 8.26 29 41A3.66 3.66 0 011309.51 1005.45zM1247.62 1178.16a3.66 3.66 0 01-3.26-2c-20.41-39.72 15.74-68 16.11-68.29a3.66 3.66 0 114.45 5.8h0c-1.3 1-31.63 24.92-14.05 59.14a3.67 3.67 0 01-1.58 4.93A3.73 3.73 0 011247.62 1178.16zM576.58 877.93a3.66 3.66 0 01-3.5-2.57c-6.19-20-4.87-36.89 3.91-50.27 15.31-23.31 47.53-27.06 48.89-27.21a3.66 3.66 0 11.79 7.27c-.3 0-30.2 3.57-43.58 24-7.51 11.46-8.52 26.28-3 44.05a3.66 3.66 0 01-2.41 4.58A3.72 3.72 0 01576.58 877.93zM484 1196.3a3.65 3.65 0 01-3.58-2.94c-.17-.84-16.2-84.51 39.52-96a3.66 3.66 0 111.48 7.17c-48.62 10-34 86.61-33.82 87.38a3.66 3.66 0 01-2.88 4.3A3.51 3.51 0 01484 1196.3z"/><path fill="#fff" d="M776.87,791.35l122.56-2.59s-8.27-27.71-40.21-37.64a79.44,79.44,0,0,0-21.07-3.41,64.93,64.93,0,0,0-24,3.41C784.65,761.42,776.87,791.35,776.87,791.35Z"/><path fill="#000002" d="M811.83,761.61a24.86,24.86,0,1,0,47.39-10.49,79.44,79.44,0,0,0-21.07-3.41,64.93,64.93,0,0,0-24,3.41A24.85,24.85,0,0,0,811.83,761.61Z"/><circle cx="837.36" cy="755" r="4.84" fill="#fff"/><path fill="#8555c9" d="M530,1049.59a3.67,3.67,0,0,1-3.42-2.35c-.49-1.27-11.77-31.35.79-57,6.85-14,19.4-23.83,37.33-29.26a3.66,3.66,0,0,1,2.12,7c-15.88,4.81-26.94,13.36-32.86,25.43-11.17,22.76-.65,50.93-.55,51.21a3.65,3.65,0,0,1-2.11,4.72A3.53,3.53,0,0,1,530,1049.59Z"/><path fill="#c93981" d="M1149.76,795H1033.4a3.66,3.66,0,0,1,0-7.32h116.36a3.66,3.66,0,1,1,0,7.32Z"/><path fill="#000006" d="M970.39 936.5a30.82 30.82 0 01-20.21-8c-1.27-.93-10.78-7.57-16.18-.56a3.66 3.66 0 11-5.8-4.47 14.69 14.69 0 0110-5.93c8.29-1 16.26 5 16.59 5.28l.39.35c.54.54 13.53 13.42 31.54-.25 3.86-3.6 13.49-8.06 23.47-.07a3.66 3.66 0 01-4.57 5.72c-7.45-6-13.36-.82-14-.21l-.29.25C983.59 934.51 976.47 936.5 970.39 936.5zM780.49 795H761.24a3.66 3.66 0 010-7.32H775c3.66-10.18 19.55-45.09 64-43.64 26.8.91 42.92 12 51.71 21.05 9.62 9.94 12.79 19.69 12.92 20.1a3.66 3.66 0 11-7 2.23c-.47-1.44-11.75-34.5-57.91-36.07s-57.49 40.48-57.6 40.91z"/><path fill="#c93981" d="M891.87 795H775.51a3.66 3.66 0 010-7.32H891.87a3.66 3.66 0 010 7.32zM1073.32 990.4a3.65 3.65 0 01-1.85-.5c-47.71-28-47.46-77.35-47.43-79.44a3.57 3.57 0 013.72-3.6 3.66 3.66 0 013.6 3.72c0 .61-.06 47.29 43.81 73a3.66 3.66 0 01-1.85 6.81z"/><path fill="#f78fc4" d="M728,873.34,743,943c3.26,12.3,6.22,25.29,9.72,38A94.19,94.19,0,1,0,728,873.34Z"/><path fill="#c93981" d="M863.34,992.84a3.66,3.66,0,0,1-1.86-6.81c43.93-25.76,43.82-72.55,43.81-73a3.66,3.66,0,0,1,3.6-3.71,3.59,3.59,0,0,1,3.72,3.6c0,2.09.28,51.47-47.43,79.44A3.64,3.64,0,0,1,863.34,992.84Z"/><path fill="#8555c9" d="M1093.5,569.52c-6.73,0-11.77-1.88-15.22-5.65-10.51-11.49.23-34.85,1.49-37.48a3.66,3.66,0,1,1,6.6,3.16c-2.82,5.91-8.8,22.7-2.68,29.39,4.52,4.93,16.31,4.17,33.21-2.15a3.66,3.66,0,1,1,2.56,6.85C1109,567.56,1100.36,569.52,1093.5,569.52Z"/><path fill="#fff" d="M1049.29,980.28H889.71a81.82,81.82,0,0,0,6.44,17.46h146.7A81.29,81.29,0,0,0,1049.29,980.28Z"/><path fill="#c93981" d="M1024.6,1021.71a82.1,82.1,0,0,1-89.87,13.56,63.29,63.29,0,0,1,89.87-13.56Z"/><path fill="#8555c9" d="M1151.64 706.18a3.66 3.66 0 01-2.52-1c-5.59-5.31-8.23-11.49-7.85-18.37.91-16.55 19.57-30.9 20.36-31.5a3.66 3.66 0 014.43 5.82c-.17.13-16.77 12.93-17.49 26.1-.25 4.69 1.58 8.83 5.59 12.65a3.66 3.66 0 01-2.52 6.31zM1331.35 751.33a3.66 3.66 0 01-3.65-3.54c-.41-12.4-4-21.41-10.58-26.79-9.45-7.68-22.34-5.54-22.47-5.52a3.66 3.66 0 01-1.29-7.2c.66-.12 16.21-2.79 28.31 7 8.37 6.77 12.86 17.63 13.34 32.28a3.66 3.66 0 01-3.54 3.78zM1504.69 851.14a3.81 3.81 0 01-1-.12 3.67 3.67 0 01-2.59-4.49c3.66-13.65 2.42-25.08-3.71-34-11.6-16.83-37.13-19.6-37.39-19.63a3.66 3.66 0 01-3.27-4 3.61 3.61 0 014-3.27c1.18.12 29.1 3.1 42.66 22.72 7.42 10.73 9 24.21 4.78 40A3.67 3.67 0 011504.69 851.14zM1324.63 668.37a3.65 3.65 0 01-3.14-5.53c11.17-18.78 47.13-14.85 48.66-14.68a3.66 3.66 0 013.21 4.06 3.62 3.62 0 01-4 3.21c-9.09-1-34.27-1.06-41.53 11.15A3.68 3.68 0 011324.63 668.37zM1530.79 1046.64a3.65 3.65 0 01-3.4-5c9.61-24.38 9.31-40.08 7.37-49-2-9.37-6.31-13.22-6.35-13.26a3.66 3.66 0 01-.37-5.14 3.62 3.62 0 015.1-.44c.89.75 21.43 18.77 1.06 70.47A3.65 3.65 0 011530.79 1046.64zM1392 1264.84a3.66 3.66 0 01-2.07-6.68c22.46-15.37 32.51-35.74 29.86-60.52a88.59 88.59 0 00-11-33.5 3.66 3.66 0 116.21-3.87c.39.62 38.54 63.23-20.92 103.93A3.65 3.65 0 011392 1264.84zM673.81 1202.35a3.65 3.65 0 01-3-5.71c8.73-12.84 11.57-24 8.45-33-4.32-12.58-19-17.45-19.18-17.5a3.66 3.66 0 012.22-7c.75.23 18.3 6 23.86 22 3.94 11.37.81 24.68-9.29 39.56A3.66 3.66 0 01673.81 1202.35zM704.16 968.13h-.36a3.67 3.67 0 01-3.29-4c4.71-47.61-38.72-63.68-40.57-64.34a3.66 3.66 0 012.45-6.9c.5.18 50.69 18.57 45.41 72A3.66 3.66 0 01704.16 968.13zM582.29 715.54l-.43 0a3.66 3.66 0 01-3.21-4.06c2.11-18.37 13-35.2 31.35-48.68a116.43 116.43 0 0127.16-14.85 3.65 3.65 0 012.44 6.89c-.49.18-49.13 17.91-53.68 57.48A3.65 3.65 0 01582.29 715.54zM761.24 427.1a3.44 3.44 0 01-.78-.08 3.65 3.65 0 01-2.79-4.36c7.16-32.74 34.72-60.61 35.89-61.78a3.66 3.66 0 115.17 5.17c-.27.27-27.21 27.56-33.92 58.18A3.65 3.65 0 01761.24 427.1zM761.24 538.39a3.61 3.61 0 01-2.1-.67c-27.92-19.61-53.86-16.42-54.12-16.39a3.66 3.66 0 01-1-7.25c1.17-.16 28.93-3.7 59.31 17.65a3.66 3.66 0 01-2.1 6.66zM590.79 1331a3.67 3.67 0 01-2.62-6.22c10.93-11.21 16-22.89 14.93-34.71-1.85-21.32-22.74-36.62-23-36.77a3.66 3.66 0 014.27-6c1 .7 23.8 17.36 26 42 1.23 14.05-4.48 27.68-17 40.5A3.64 3.64 0 01590.79 1331zM646 1409c-24.76 0-33.11-15-33.51-15.72a3.66 3.66 0 016.44-3.48c.42.75 10 17 41.52 10.22a3.66 3.66 0 011.54 7.15A75.67 75.67 0 01646 1409zM889.71 387.32a3.66 3.66 0 01-3.2-5.43c.36-.64 36.33-64.29 100.33-51.17a3.66 3.66 0 01-1.47 7.17c-58.65-12-92.13 46.94-92.46 47.54A3.65 3.65 0 01889.71 387.32z"/></svg>